<?xml version="1.0" standalone="no"?>
<!DOCTYPE svg PUBLIC "-//W3C//DTD SVG 20010904//EN"
 "http://www.w3.org/TR/2001/REC-SVG-20010904/DTD/svg10.dtd">
<svg version="1.0" xmlns="http://www.w3.org/2000/svg"
 width="401.000000pt" height="401.000000pt" viewBox="0 0 401.000000 401.000000"
 preserveAspectRatio="xMidYMid meet">

<g transform="translate(0.000000,401.000000) scale(0.100000,-0.100000)"
fill="#142452" stroke="none">
<path d="M2130 3283 l0 -119 -197 -1 c-215 -1 -345 -18 -517 -68 -119 -34
-294 -119 -403 -194 -246 -169 -387 -341 -442 -539 l-20 -72 193 0 193 0 37
75 c99 200 327 351 656 433 95 23 124 26 300 26 l195 1 5 -132 5 -132 277 207
c152 114 277 209 277 212 1 5 -513 394 -546 413 -11 7 -13 -14 -13 -110z"/>
<path d="M3019 2390 c-110 -19 -214 -96 -260 -189 l-24 -50 -1105 0 -1105 0
-8 -58 c-4 -32 -5 -100 -2 -150 l7 -93 1106 0 1107 0 20 -43 c27 -56 109 -137
170 -167 44 -22 64 -25 160 -25 99 0 116 3 168 27 159 75 259 248 236 413 -28
209 -259 373 -470 335z m159 -234 c60 -31 94 -88 94 -156 0 -127 -129 -207
-244 -151 -162 79 -106 320 75 321 26 0 60 -6 75 -14z"/>
<path d="M550 1715 c0 -28 68 -205 97 -253 142 -233 421 -445 713 -541 177
-58 272 -72 532 -78 l238 -5 0 -114 0 -114 281 211 c155 116 277 214 273 219
-18 16 -545 410 -549 410 -3 0 -5 -60 -5 -134 0 -113 -2 -135 -16 -140 -9 -3
-78 -6 -154 -6 -469 0 -891 208 -1002 493 l-23 57 -192 0 c-106 0 -193 -2
-193 -5z"/>
</g>
</svg>
