<!DOCTYPE svg PUBLIC "-//W3C//DTD SVG 1.1//EN" "http://www.w3.org/Graphics/SVG/1.1/DTD/svg11.dtd">
<!-- Uploaded to: SVG Repo, www.svgrepo.com, Transformed by: SVG Repo Mixer Tools -->
<svg version="1.1" id="Uploaded to svgrepo.com" xmlns="http://www.w3.org/2000/svg" xmlns:xlink="http://www.w3.org/1999/xlink" width="800px" height="800px" viewBox="0 0 32 32" xml:space="preserve" fill="#ffffff">
<g id="SVGRepo_bgCarrier" stroke-width="0"/>
<g id="SVGRepo_tracerCarrier" stroke-linecap="round" stroke-linejoin="round"/>
<g id="SVGRepo_iconCarrier"> <style type="text/css"> .linesandangles_een{fill:#ffffff;} </style> <path class="linesandangles_een" d="M24,27V3H10v24H6v2h22v-2H24z M16,27v-4h-2v4h-2V5h10v22H16z M18,7h2v2h-2V7z M14,7h2v2h-2V7z M18,11h2v2h-2V11z M14,11h2v2h-2V11z M18,15h2v2h-2V15z M14,15h2v2h-2V15z M18,19h2v2h-2V19z M14,19h2v2h-2V19z M18,23h2v2h-2V23z"/> </g>
</svg>